<mxfile host="app.diagrams.net" modified="2023-11-01T21:58:24.398Z" agent="Mozilla/5.0 (Macintosh; Intel Mac OS X 10_15_7) AppleWebKit/537.36 (KHTML, like Gecko) Chrome/118.0.0.0 Safari/537.36" version="22.0.8" etag="qooBpcQ1hVr_aFm0BwpU" type="github">
  <diagram name="Page-1" id="YIr5Tf5GVwXC5L-pbgEH">
    <mxGraphModel>
      <root>
        <mxCell id="0" />
        <mxCell id="1" parent="0" />
      </root>
    </mxGraphModel>
  </diagram>
</mxfile>
